<svg width="105" height="104" viewBox="0 0 105 104" fill="none" xmlns="http://www.w3.org/2000/svg">
<path d="M89.5386 49.9347V98H59.5666C59.5666 92.4925 59.5666 80.6514 59.5666 77.3469C64.0471 77.3469 69.1741 71.18 69.3084 64.5796C69.463 56.9811 64.4265 48.8082 58.8078 48.8082L59.5666 62.702L52.7375 66.8327L45.5291 62.702C45.5291 60.0735 46.2878 53.9151 46.2878 48.8082C40.1454 48.8082 34.9577 56.9811 35.0664 64.5796C35.1609 71.18 41.2836 77.3469 44.3909 77.3469V98H15.1776V56.3184C15.1776 55.317 15.1776 52.6384 15.1776 49.9347M89.5386 49.9347C94.4708 53.6898 100.541 46.1796 98.6441 43.1755C97.1265 40.7722 67.4074 17.3905 52.7375 6L7.21036 41.298C3.79582 44.302 7.96915 53.3143 15.1776 49.9347M89.5386 49.9347L52.7375 20.2182L15.1776 49.9347" stroke="#66A1AD" stroke-width="2"/>
</svg>
