<svg width="105" height="104" viewBox="0 0 105 104" fill="none" xmlns="http://www.w3.org/2000/svg">
<path d="M76.9868 50.3212C76.9868 47.9637 76.9868 40.8912 76.9868 34.9974C76.9868 34.0955 76.9041 33.315 76.7547 32.6399M76.9868 50.3212C76.9868 52.6788 74.1614 55.272 72.5132 55.272C70.8651 55.272 46.1429 55.272 44.4947 55.272C42.8466 55.272 39.5503 54.329 39.5503 50.3212M76.9868 50.3212H89.9365M39.5503 50.3212C39.5503 46.3135 39.5503 37.1192 39.5503 34.9974C39.5503 34.3619 39.6136 33.5148 39.8163 32.6399M39.5503 50.3212C37.0388 50.3212 31.7804 50.3212 30.8386 50.3212C29.6614 50.3212 27.0714 50.3212 27.0714 53.6218C27.0714 56.2622 27.0714 60.38 27.0714 62.1088H28.4841V69.6529H8V62.1088H9.64815V52.443C9.64815 40.4197 20.2434 32.6399 26.3651 32.6399C32.4868 32.6399 36.3529 32.6399 39.8163 32.6399M76.7547 32.6399C75.9279 28.9037 73.0587 28.3964 70.8651 28.3964C70.508 28.3964 69.8557 28.3964 68.9815 28.3964M76.7547 32.6399H89.9365M89.9365 32.6399V50.3212M89.9365 32.6399C89.9365 30.5181 90.6429 29.3394 92.0556 29.3394C93.1857 29.3394 95.8227 29.3394 97 29.3394V53.6218C95.7443 53.6218 92.9974 53.6218 92.0556 53.6218C90.8783 53.6218 89.9365 52.2073 89.9365 50.3212M39.8163 32.6399C40.2903 30.5941 41.5261 28.3964 44.4947 28.3964C45.6338 28.3964 47.28 28.3964 49.2037 28.3964M49.2037 28.3964L52.0291 21.0881H54.3836M49.2037 28.3964C55.5077 28.3964 64.7923 28.3964 68.9815 28.3964M68.9815 28.3964L66.1561 21.0881H62.6243M54.3836 21.0881V10.715H39.8163V6H77.9286V10.715H62.6243V21.0881M54.3836 21.0881H62.6243M18.3598 73.1891C15.7698 76.7254 10.8254 84.2694 10.8254 88.513C10.8254 92.7565 14.1217 97 18.3598 97C22.5979 97 26.3651 92.5207 26.3651 88.513C26.3651 85.3067 21.0282 76.9611 18.3598 73.1891Z" stroke="#66A1AD" stroke-width="2"/>
</svg>
