<svg width="36" height="30" viewBox="0 0 36 30" fill="none" xmlns="http://www.w3.org/2000/svg">
<path d="M7.79679 0C10.0428 0 11.9037 0.741936 13.3797 2.22581C14.8556 3.70968 15.5936 5.6129 15.5936 7.93548C15.5936 9.09677 15.4332 10.2258 15.1123 11.3226C14.8556 12.4194 14.3102 14.0645 13.4759 16.2581L8.47059 30H0.673797L4.52406 15.0968C3.1123 14.5806 1.9893 13.7097 1.15508 12.4839C0.385027 11.1935 0 9.67742 0 7.93548C0 5.6129 0.737968 3.70968 2.2139 2.22581C3.68984 0.741936 5.5508 0 7.79679 0ZM28.2032 0C30.4492 0 32.3102 0.741936 33.7861 2.22581C35.262 3.70968 36 5.6129 36 7.93548C36 9.09677 35.8396 10.2258 35.5187 11.3226C35.262 12.4194 34.7166 14.0645 33.8824 16.2581L28.877 30H21.0802L24.9305 15.0968C23.5187 14.5806 22.3957 13.7097 21.5615 12.4839C20.7914 11.1935 20.4064 9.67742 20.4064 7.93548C20.4064 5.6129 21.1444 3.70968 22.6203 2.22581C24.0963 0.741936 25.9572 0 28.2032 0Z" fill="white"/>
</svg>
