<svg width="105" height="104" viewBox="0 0 105 104" fill="none" xmlns="http://www.w3.org/2000/svg">
<path d="M72.3904 17.5357C72.3904 16.2917 72.3904 14.9461 72.3904 13.6786C72.3904 11.1071 70.7992 9.39286 68.9958 9.39286C67.1924 9.39286 62.9491 9.39286 60.9335 9.39286C60.9335 6.5 57.2206 2 52.0226 2C46.8246 2 43.2178 6.17857 43.2178 9.39286C41.0255 9.39286 36.2588 9.39286 34.7313 9.39286C33.0339 9.39286 32.1853 11.2143 32.1853 12.6071C32.1853 13.4192 32.1853 15.5787 32.1853 17.5357M72.3904 17.5357C72.3904 18.8155 72.3904 19.9879 72.3904 20.8571C72.3904 22.5714 70.7992 24.2857 68.9958 24.2857C67.1924 24.2857 36.2164 24.2857 34.7313 24.2857C33.2461 24.2857 32.1853 22.3571 32.1853 20.8571C32.1853 20.2317 32.1853 18.9355 32.1853 17.5357M72.3904 17.5357C74.9363 17.5357 80.5375 17.5357 82.5743 17.5357C85.1202 17.5357 90 19.7857 90 25.1429C90 30.5 90 91.1429 90 94.1429C90 97.1429 87.348 101 84.1655 101C80.983 101 24.5474 101 21.6832 101C18.819 101 15 98 15 94.1429C15 90.2857 15 29.4286 15 25.1429C15 20.8571 18.1825 17.5357 20.8345 17.5357C22.9562 17.5357 29.2857 17.5357 32.1853 17.5357M41.8388 66.8571H79.2816M41.8388 53.2857H79.2816M41.8388 39.5H79.2816M41.8388 80.5H66M26.7751 37.0357H36.959V41.5357H26.7751V37.0357ZM26.7751 50.6071H36.959V55.1071H26.7751V50.6071ZM26.7751 64.1786H36.959V68.6786H26.7751V64.1786ZM26.7751 78V82.5H36.959V78H26.7751Z" stroke="#66A1AD" stroke-width="2"/>
<path d="M78.4444 95V76H79.5556V95H78.4444ZM82.1843 81.7C82.103 80.9479 81.7733 80.3641 81.1951 79.9484C80.617 79.5328 79.9079 79.325 79.0678 79.325C78.4535 79.325 77.916 79.4339 77.4553 79.6516C76.9991 79.8693 76.6423 80.1686 76.3848 80.5496C76.1319 80.9306 76.0054 81.3635 76.0054 81.8484C76.0054 82.2542 76.0935 82.603 76.2696 82.8949C76.4503 83.1819 76.6807 83.4219 76.9607 83.6148C77.2407 83.8029 77.5343 83.9587 77.8415 84.0824C78.1486 84.2012 78.4309 84.2977 78.6883 84.3719L80.0976 84.7875C80.4589 84.8914 80.8609 85.0349 81.3035 85.218C81.7507 85.401 82.1775 85.6509 82.584 85.9676C82.995 86.2793 83.3338 86.6801 83.6003 87.1699C83.8668 87.6598 84 88.2609 84 88.9734C84 89.7948 83.8035 90.537 83.4106 91.2C83.0221 91.863 82.453 92.39 81.7033 92.7809C80.958 93.1717 80.0524 93.3672 78.9864 93.3672C77.9928 93.3672 77.1323 93.1915 76.4051 92.8402C75.6825 92.4889 75.1134 91.9991 74.6978 91.3707C74.2868 90.7423 74.0542 90.0125 74 89.1813H75.7344C75.7796 89.7552 75.9557 90.2302 76.2629 90.6062C76.5745 90.9773 76.9675 91.2544 77.4417 91.4375C77.9205 91.6156 78.4354 91.7047 78.9864 91.7047C79.6278 91.7047 80.2037 91.5909 80.7141 91.3633C81.2245 91.1307 81.6287 90.8091 81.9268 90.3984C82.2249 89.9828 82.374 89.4979 82.374 88.9438C82.374 88.4391 82.2453 88.0284 81.9878 87.7117C81.7304 87.3951 81.3916 87.1378 80.9715 86.9398C80.5515 86.7419 80.0976 86.5688 79.6098 86.4203L77.9024 85.8859C76.8184 85.5445 75.9603 85.0572 75.3279 84.4238C74.6956 83.7905 74.3794 82.9617 74.3794 81.9375C74.3794 81.0865 74.5894 80.3443 75.0095 79.7109C75.4341 79.0727 76.0032 78.5779 76.7168 78.2266C77.435 77.8703 78.2367 77.6922 79.122 77.6922C80.0163 77.6922 80.8112 77.8678 81.5068 78.2191C82.2023 78.5655 82.7534 79.0405 83.1599 79.6441C83.5709 80.2478 83.7877 80.9331 83.8103 81.7H82.1843Z" fill="#66A1AD"/>
</svg>
